HIERARCHY
ROOT Hips
{
	OFFSET 0.000000 0.000000 0.000000
	CHANNELS 6 Xposition Yposition Zposition Zrotation Yrotation Xrotation 
	JOINT LowerBack
	{
		OFFSET 0.000000 0.000000 0.000000
		CHANNELS 3 Zrotation Yrotation Xrotation
		JOINT Spine
		{
			OFFSET 0.028270 2.035590 -0.193380
			CHANNELS 3 Zrotation Yrotation Xrotation
			JOINT Spine1
			{
				OFFSET 0.056720 2.048850 -0.042750
				CHANNELS 3 Zrotation Yrotation Xrotation
				JOINT Neck
				{
					OFFSET 0.000000 0.000000 0.000000
					CHANNELS 3 Zrotation Yrotation Xrotation
					JOINT Neck1
					{
						OFFSET -0.054170 1.746240 0.172020
						CHANNELS 3 Zrotation Yrotation Xrotation
						JOINT Head
						{
							OFFSET 0.104070 1.761360 -0.123970
							CHANNELS 3 Zrotation Yrotation Xrotation
							End Site
							{
								OFFSET 0.000000 0.000000 0.000000
							}
						}
					}
				}
				JOINT LeftShoulder
				{
					OFFSET 0.000000 0.000000 0.000000
					CHANNELS 3 Zrotation Yrotation Xrotation
					JOINT LeftArm
					{
						OFFSET 3.362410 1.200890 -0.311210
						CHANNELS 3 Zrotation Yrotation Xrotation
						JOINT LeftForeArm
						{
							OFFSET 4.983000 -0.000000 -0.000000
							CHANNELS 3 Zrotation Yrotation Xrotation
							JOINT LeftHand
							{
								OFFSET 3.483560 -0.000000 -0.000000
								CHANNELS 3 Zrotation Yrotation Xrotation
								JOINT LeftFingerBase
								{
									OFFSET 0.000000 0.000000 0.000000
									CHANNELS 3 Zrotation Yrotation Xrotation
									JOINT LeftHandIndex1
									{
										OFFSET 0.715260 -0.000000 -0.000000
										CHANNELS 3 Zrotation Yrotation Xrotation
										End Site
										{
											OFFSET 0.000000 0.000000 0.000000
										}
									}
								}
								JOINT LThumb
								{
									OFFSET 0.000000 0.000000 0.000000
									CHANNELS 3 Zrotation Yrotation Xrotation
									End Site
									{
										OFFSET 0.000000 0.000000 0.000000
									}
								}
							}
						}
					}
				}
				JOINT RightShoulder
				{
					OFFSET 0.000000 0.000000 0.000000
					CHANNELS 3 Zrotation Yrotation Xrotation
					JOINT RightArm
					{
						OFFSET -3.136600 1.374050 -0.404650
						CHANNELS 3 Zrotation Yrotation Xrotation
						JOINT RightForeArm
						{
							OFFSET -5.241900 -0.000000 -0.000000
							CHANNELS 3 Zrotation Yrotation Xrotation
							JOINT RightHand
							{
								OFFSET -3.444170 -0.000000 -0.000000
								CHANNELS 3 Zrotation Yrotation Xrotation
								JOINT RightFingerBase
								{
									OFFSET 0.000000 0.000000 0.000000
									CHANNELS 3 Zrotation Yrotation Xrotation
									JOINT RightHandIndex1
									{
										OFFSET -0.622530 -0.000000 -0.000000
										CHANNELS 3 Zrotation Yrotation Xrotation
										End Site
										{
											OFFSET 0.000000 0.000000 0.000000
										}
									}
								}
								JOINT RThumb
								{
									OFFSET 0.000000 0.000000 0.000000
									CHANNELS 3 Zrotation Yrotation Xrotation
									End Site
									{
										OFFSET 0.000000 0.000000 0.000000
									}
								}
							}
						}
					}
				}
			}
		}
	}
}
}
MOTION
Frames: 15
Frame Time: 0.008333
3.866370 16.280710 -2.110701 101.722644 -71.513207 -108.125542 -13.432144 0.019002 10.374738 -3.024139 0.594598 -2.133101 -5.010836 0.606700 -4.402602 6.261872 -4.737507 -5.745074 -2.462941 -0.203566 0.315530 0.000000 0.000000 0.000000 0.005242 4.152708 1.128060 -47.887604 30.375556 44.722963 -1.450870 -68.118562 -0.022626 -7.593804 -9.987038 0.668417 0.089718 -0.041095 -0.000000 0.000000 0.000000 0.000000 0.000000 0.000000 0.000000 8.663316 1.954666 0.590859 60.261798 -17.356756 29.469240 0.658590 66.944051 -0.015435 -8.838021 5.663952 -0.456976 0.109624 -0.184931 0.000000 0.000000 0.000000 0.000000 0.000000 0.000000 0.000000 
3.892573 16.276004 -2.124814 101.435253 -71.580032 -107.976903 -13.668671 0.219707 10.363999 -3.088345 0.798207 -2.141729 -5.062994 0.812727 -4.405908 6.423388 -5.069071 -5.831193 -2.445811 -0.201519 0.290727 0.000000 0.000000 0.000000 -0.044127 4.935385 0.923822 -48.228708 31.509388 44.476486 -1.423956 -68.756670 -0.024165 -7.692480 -10.070656 0.683216 0.096108 -0.041313 -0.000000 0.000000 0.000000 0.000000 0.000000 0.000000 0.000000 8.822442 1.748549 0.512128 60.566183 -18.441052 29.157963 0.661022 67.244929 -0.015108 -8.897250 5.624716 -0.456766 0.111115 -0.182179 0.000000 0.000000 0.000000 0.000000 0.000000 0.000000 0.000000 
3.918233 16.277134 -2.141373 101.851170 -71.320933 -108.929124 -14.148255 0.523672 10.548784 -3.218598 1.095957 -2.098967 -5.120703 1.116384 -4.411342 6.609935 -5.424338 -5.861978 -2.431013 -0.200280 0.277584 0.000000 0.000000 0.000000 -0.099987 5.750759 0.674854 -48.514110 32.740547 44.112679 -1.396960 -69.426841 -0.026240 -7.823144 -10.148607 0.700583 0.103862 -0.043041 -0.000000 0.000000 0.000000 0.000000 0.000000 0.000000 0.000000 9.042542 1.556601 0.430363 60.845284 -19.381474 29.011627 0.664434 67.437066 -0.014686 -8.901271 5.594053 -0.454361 0.111621 -0.179341 0.000000 0.000000 0.000000 0.000000 0.000000 0.000000 0.000000 
3.939982 16.283695 -2.155294 103.376813 -70.764445 -111.543388 -14.748343 0.967741 11.014211 -3.385216 1.525671 -1.985772 -5.168428 1.556213 -4.421260 6.775443 -5.784457 -5.833139 -2.410849 -0.199289 0.277531 0.000000 0.000000 0.000000 -0.196296 6.666965 0.376285 -48.820222 34.064610 43.597427 -1.373436 -70.054268 -0.028749 -7.973068 -10.218100 0.719222 0.112599 -0.046090 -0.000000 0.000000 0.000000 0.000000 0.000000 0.000000 0.000000 9.236998 1.419032 0.341391 61.059186 -20.161438 29.091510 0.668187 67.519623 -0.014174 -8.840914 5.579701 -0.449865 0.111006 -0.176578 0.000000 0.000000 0.000000 0.000000 0.000000 0.000000 0.000000 
3.954466 16.295888 -2.161508 105.911593 -70.059659 -115.608311 -15.253934 1.522418 11.663208 -3.529670 2.062589 -1.834712 -5.194265 2.105222 -4.433104 6.879122 -6.128296 -5.747615 -2.380744 -0.198213 0.292523 0.000000 0.000000 0.000000 -0.376461 7.713818 0.033817 -49.210011 35.481962 42.892242 -1.357688 -70.571268 -0.031395 -8.136083 -10.275292 0.738246 0.121358 -0.049733 -0.000000 0.000000 0.000000 0.000000 0.000000 0.000000 0.000000 9.336144 1.332270 0.236821 61.150512 -20.800352 29.442830 0.672010 67.511065 -0.013509 -8.709236 5.589699 -0.443778 0.109416 -0.173757 0.000000 0.000000 0.000000 0.000000 0.000000 0.000000 0.000000 
3.960232 16.314833 -2.160578 108.699572 -69.300273 -120.037140 -15.610031 2.084204 12.253998 -3.630945 2.610068 -1.702911 -5.196215 2.664172 -4.434512 6.929614 -6.453647 -5.615926 -2.344027 -0.197341 0.323187 0.000000 0.000000 0.000000 -0.644201 8.837589 -0.335372 -49.694983 37.006461 41.935496 -1.354297 -70.944691 -0.033844 -8.318056 -10.312965 0.757583 0.128940 -0.053564 -0.000000 0.000000 0.000000 0.000000 0.000000 0.000000 0.000000 9.364064 1.235396 0.106430 61.081007 -21.315248 30.077540 0.674812 67.435284 -0.012628 -8.508982 5.630922 -0.436396 0.107111 -0.170602 0.000000 0.000000 0.000000 0.000000 0.000000 0.000000 0.000000 
3.957581 16.340991 -2.155338 111.105063 -68.544669 -123.908735 -15.857691 2.557768 12.581102 -3.698139 3.080929 -1.622440 -5.172130 3.144997 -4.404536 6.949350 -6.759410 -5.455449 -2.305104 -0.196929 0.366323 0.000000 0.000000 0.000000 -0.954118 9.996221 -0.704404 -50.300103 38.581923 40.686086 -1.366821 -71.127025 -0.035782 -8.508613 -10.332635 0.776359 0.134081 -0.057423 -0.000000 0.000000 0.000000 0.000000 0.000000 0.000000 0.000000 9.366643 1.084978 -0.059839 60.842126 -21.711553 30.973131 0.674193 67.321151 -0.011532 -8.248364 5.708808 -0.428417 0.104177 -0.166979 0.000000 0.000000 0.000000 0.000000 0.000000 0.000000 0.000000 
3.946677 16.373919 -2.145736 113.125940 -67.906971 -127.052948 -15.929496 2.899886 12.531759 -3.717964 3.439843 -1.609392 -5.117767 3.511490 -4.331852 6.932476 -7.038712 -5.283508 -2.264577 -0.196841 0.417652 0.000000 0.000000 0.000000 -1.299918 11.181256 -1.050937 -51.052552 40.155171 39.115639 -1.396886 -71.089938 -0.036966 -8.701503 -10.335881 0.793799 0.135907 -0.061103 -0.000000 0.000000 0.000000 0.000000 0.000000 0.000000 0.000000 9.338917 0.875043 -0.264180 60.424975 -21.998321 32.103546 0.668606 67.200604 -0.010269 -7.940931 5.825242 -0.420341 0.100764 -0.162904 0.000000 0.000000 0.000000 0.000000 0.000000 0.000000 0.000000 
3.928109 16.412605 -2.130938 114.964575 -67.366099 -129.740106 -15.813511 3.134864 12.168997 -3.699702 3.702399 -1.634671 -5.030651 3.779801 -4.215750 6.862579 -7.282917 -5.113553 -2.222011 -0.196834 0.472924 0.000000 0.000000 0.000000 -1.680409 12.397658 -1.356551 -51.982314 41.666622 37.206813 -1.444432 -70.819323 -0.037302 -8.890062 -10.324761 0.809608 0.134174 -0.064370 -0.000000 0.000000 0.000000 0.000000 0.000000 0.000000 0.000000 9.259367 0.638592 -0.502725 59.839689 -22.173803 33.426633 0.656520 67.103664 -0.008951 -7.605005 5.977599 -0.412468 0.096948 -0.158706 0.000000 0.000000 0.000000 0.000000 0.000000 0.000000 0.000000 
3.903241 16.455872 -2.113162 116.713181 -66.917914 -132.068895 -15.529071 3.274261 11.519987 -3.647343 3.877898 -1.694930 -4.915048 3.958279 -4.060897 6.751080 -7.488083 -4.961854 -2.179097 -0.196714 0.526196 0.000000 0.000000 0.000000 -2.067151 13.632668 -1.604394 -53.088562 43.061991 34.966306 -1.509931 -70.318203 -0.036780 -9.066883 -10.301699 0.823084 0.128887 -0.067154 -0.000000 0.000000 0.000000 0.000000 0.000000 0.000000 0.000000 9.146008 0.397511 -0.765349 59.115277 -22.251080 34.870722 0.636260 67.055957 -0.007727 -7.260689 6.159902 -0.405298 0.092617 -0.154760 0.000000 0.000000 0.000000 0.000000 0.000000 0.000000 0.000000 
3.873686 16.502085 -2.093478 118.390623 -66.541382 -134.156472 -15.106443 3.340025 10.695128 -3.565129 3.981788 -1.774403 -4.773748 4.062531 -3.878328 6.598785 -7.658519 -4.843073 -2.135362 -0.196109 0.572036 0.000000 0.000000 0.000000 -2.450411 14.865757 -1.783376 -54.360552 44.292885 32.422448 -1.592623 -69.601792 -0.035479 -9.226534 -10.266451 0.833812 0.120490 -0.069305 -0.000000 0.000000 0.000000 0.000000 0.000000 0.000000 0.000000 8.995689 0.167184 -1.038375 58.286698 -22.235125 36.363423 0.606697 67.072286 -0.006735 -6.933104 6.362364 -0.399135 0.087745 -0.151453 0.000000 0.000000 0.000000 0.000000 0.000000 0.000000 0.000000 
3.841351 16.549407 -2.073636 119.935818 -66.196666 -136.046670 -14.611740 3.353463 9.805640 -3.464697 4.030264 -1.858490 -4.611828 4.109082 -3.681760 6.415836 -7.794536 -4.767329 -2.091527 -0.194822 0.606089 0.000000 0.000000 0.000000 -2.803309 16.070031 -1.886615 -55.771914 45.311307 29.638989 -1.691042 -68.682338 -0.033547 -9.358267 -10.220234 0.840874 0.109649 -0.070833 -0.000000 0.000000 0.000000 0.000000 0.000000 0.000000 0.000000 8.819589 -0.031697 -1.308219 57.397524 -22.147814 37.813745 0.567959 67.166608 -0.006083 -6.639280 6.571347 -0.394276 0.082293 -0.149125 0.000000 0.000000 0.000000 0.000000 0.000000 0.000000 0.000000 
3.807747 16.596013 -2.054561 121.326057 -65.855777 -137.811748 -14.087125 3.337105 8.959181 -3.352255 4.042225 -1.934217 -4.434478 4.117488 -3.486054 6.206527 -7.904648 -4.740516 -2.046914 -0.192640 0.625650 0.000000 0.000000 0.000000 -3.116684 17.212018 -1.916930 -57.274550 46.092099 26.704505 -1.802299 -67.581140 -0.031182 -9.454158 -10.160978 0.843450 0.097207 -0.071855 -0.000000 0.000000 0.000000 0.000000 0.000000 0.000000 0.000000 8.614985 -0.191068 -1.560754 56.488825 -22.004976 39.147051 0.521932 67.340120 -0.005811 -6.396586 6.771944 -0.391021 0.076491 -0.147983 0.000000 0.000000 0.000000 0.000000 0.000000 0.000000 0.000000 
3.774386 16.639957 -2.037021 122.564248 -65.518978 -139.468735 -13.553661 3.303713 8.197080 -3.227705 4.029740 -2.004446 -4.246580 4.099726 -3.303754 5.977892 -7.996907 -4.764458 -2.000872 -0.189441 0.629526 0.000000 0.000000 0.000000 -3.380381 18.253159 -1.882268 -58.805871 46.625149 23.728314 -1.923047 -66.317374 -0.028575 -9.506083 -10.086815 0.840725 0.083907 -0.072592 -0.000000 0.000000 0.000000 0.000000 0.000000 0.000000 0.000000 8.380329 -0.312628 -1.784051 55.598649 -21.829475 40.297030 0.471813 67.588589 -0.005913 -6.215485 6.949518 -0.389468 0.070675 -0.148066 0.000000 0.000000 0.000000 0.000000 0.000000 0.000000 0.000000 
3.741755 16.679936 -2.019828 123.721283 -65.171508 -141.167039 -12.993184 3.277365 7.606254 -3.091558 4.013951 -2.048495 -4.052330 4.078771 -3.144842 5.720196 -8.082544 -4.834555 -1.951790 -0.185176 0.618952 0.000000 0.000000 0.000000 -3.612273 19.167935 -1.797292 -60.300716 46.906966 20.833325 -2.049033 -64.903731 -0.025891 -9.506948 -9.995404 0.832092 0.070464 -0.073189 -0.000000 0.000000 0.000000 0.000000 0.000000 0.000000 0.000000 8.091492 -0.397299 -1.971442 54.751572 -21.629424 41.225748 0.421164 67.901485 -0.006328 -6.102043 7.090675 -0.389912 0.065281 -0.149274 0.000000 0.000000 0.000000 0.000000 0.000000 0.000000 0.000000 
